<svg width="238" height="150" version="1.1" xmlns="http://www.w3.org/2000/svg" desc="Created with imagetracer.js version 1.2.6" ><path fill="rgb(20,59,36)" stroke="rgb(20,59,36)" stroke-width="1" opacity="0.996078431372549" d="M 117.5 0 L 118 23 L 125 22.5 L 123 21.5 L 131 20.5 L 125 19.5 L 131 18.5 L 129 17.5 L 137 16.5 L 129 15.5 L 139 14.5 L 137 13.5 L 143 12.5 L 137 11.5 L 143 11 Q 141.8 8 145.5 9 L 146 4.5 Q 144.3 -1.4 148 0 L 148 7 L 150.5 7 L 150.5 6 L 149 5.5 L 155 4.5 L 149 3.5 L 157 3 Q 155.6 -1 162.5 1 L 165.5 0 L 168.5 1 L 169.5 0 L 205 0 L 205 29 L 177 29 L 176.5 13 L 176 26.5 L 175 27.5 L 175.5 29 L 137 29.5 L 176 30.5 L 175 37.5 Q 174.3 41.3 176.5 42 L 177 30 L 204.5 30 L 205 35 L 197 35.5 L 205 36.5 L 197 37.5 L 199 38.5 L 193 39.5 L 199 40.5 L 193 41.5 L 195 42.5 L 185 43.5 L 191 44.5 L 185 45.5 L 187 46.5 L 177 47.5 L 187 48.5 L 179 49.5 L 181 50 L 181.5 52 L 182.5 50 L 183 52 L 187 52 L 187 53.5 L 189.5 52 L 198.5 52 L 199.5 53 L 201.5 53 L 204.5 52 L 211.5 53 L 213 53.5 L 202 54 L 201.5 57 L 199.5 54 L 190.5 54 L 189 55.5 L 188.5 57 Q 186.5 52 177.5 54 Q 176.4 56.7 173 56 L 174 51 Q 171 49 163.5 50 L 161 51 L 160 54.5 L 160.5 56 L 157.5 54 L 124.5 54 L 122.5 54 L 121 53.5 L 122 52.5 L 117.5 48 L 113.5 48 L 110 50 L 107 58.5 L 107.5 60 Q 104.9 59.2 106 62.5 L 106 64.5 L 108.5 67 L 119.5 67 L 120.5 68 L 122 67.5 Q 121.2 70.1 124.5 69 Q 126 72.5 132.5 71 L 137 69 Q 135.7 65.7 140.5 67 L 143 66 L 144.5 63 Q 147.1 62.3 146 65 L 148.5 65 Q 149.5 68 154.5 67 Q 156.5 64 162.5 65 L 163.5 66 L 172 66 L 172.5 64 L 182.5 66 L 187 65 L 187.5 63 L 188 65 Q 191.5 66.7 198.5 66 L 199.5 65 L 208 65 L 208.5 63 L 209 65 L 215 65 L 215 56.5 L 214 54.5 L 215 54.5 L 217 57.5 L 216 59.5 L 216 61.5 L 215 67 L 205.5 67 L 204.5 68 L 200.5 68 L 192.5 69 Q 191 66.5 185.5 68 Q 183.8 70.8 177.5 69 Q 176.4 66.3 173 67 L 172.5 69 L 157.5 69 L 154.5 70 L 152.5 71 L 151.5 69 L 150.5 71 L 150 69 L 145 69.5 L 149 70.5 L 141 71.5 L 146 72.5 L 141 73.5 L 143 74.5 L 133 75.5 L 141 76.5 L 133 77.5 L 135 78.5 L 129 79.5 L 135 80.5 L 129 81.5 L 131 82.5 L 121 83.5 L 127 84.5 L 119 85.5 L 119.5 87 Q 116.9 87.7 118 85 L 115 85 L 114.5 87 L 114 85 L 111.5 86 L 107 85 L 107 90 L 116.5 90 L 116.5 91 L 109 91.5 L 115 92.5 L 109 93.5 L 111 94.5 L 101 95.5 L 107 96.5 L 101 97.5 L 103 98.5 L 97 99.5 L 103 100.5 L 97 101.5 L 99 102.5 L 89 103 L 89 100.5 L 97.5 89 L 105.5 89 L 106 87 L 98.5 87 L 98 85.5 L 100 81.5 L 100 66.5 Q 96.6 51.4 86 43.5 L 88 32.5 L 87 30 L 59.5 30 Q 58.5 30 59 34.5 L 58 34.5 Q 58.5 30 57.5 30 L 37.5 30 L 37.5 29 L 58 29 L 58 21.5 L 59 21.5 L 59 28.5 L 59.5 29 L 87 29 L 88 26.5 L 88 22.5 L 88.5 5 L 89 29 L 117 28.5 L 113 27.5 L 117 27 L 117.5 0 Z M 149 8 L 149 9 L 151 9 L 149 8 Z M 119 24 L 119 25 L 123 25 L 119 24 Z M 89 30 L 89 39 L 90 43 Q 94 44 93 41 L 99 41 L 93 40 L 99 39 L 97 38 L 103 37 L 99 36 L 107 35 L 105 34 L 111 33 L 105 32 L 111 31 L 89 30 Z M 118 37 L 117 41 L 118 41 L 118 37 Z M 178 51 L 178 52 L 180 52 L 178 51 Z M 102 58 L 102 59 L 105 59 L 102 58 Z M 110 69 L 107 70 L 107 78 L 109 79 L 117 79 L 117 84 L 118 84 Q 116 77 123 79 L 124 78 L 124 70 L 122 69 L 110 69 Z " /><path fill="rgb(20,59,36)" stroke="rgb(20,59,36)" stroke-width="1" opacity="0.996078431372549" d="M 206 0 L 230.5 0 L 234 2.5 L 235 4.5 L 235 15 L 229 15.5 L 235 16.5 L 229 17.5 L 231 18.5 L 225 19.5 L 231 20.5 L 225 21.5 L 227 22.5 L 217 23.5 L 225 24.5 L 217 25.5 L 219 26.5 L 211 27.5 L 219 28.5 L 207.5 29 L 207 26.5 Q 208.3 21.7 206 20.5 L 206 14.5 L 206 0 Z M 222 12 Q 220 15 223 14 L 222 12 Z M 214 17 Q 214 21 216 18 L 214 17 Z " /><path fill="rgb(20,59,36)" stroke="rgb(20,59,36)" stroke-width="1" opacity="0.996078431372549" d="M 207.5 30 L 213 30.5 L 207.5 31 L 207.5 30 Z " /><path fill="rgb(20,59,36)" stroke="rgb(20,59,36)" stroke-width="1" opacity="0.996078431372549" d="M 207.5 32 L 211 32.5 L 207.5 33 L 207.5 32 Z " /><path fill="rgb(20,59,36)" stroke="rgb(20,59,36)" stroke-width="1" opacity="0.996078431372549" d="M 66.5 35 L 69 35.5 L 66.5 36 L 66.5 35 Z " /><path fill="rgb(20,59,36)" stroke="rgb(20,59,36)" stroke-width="1" opacity="0.996078431372549" d="M 29.5 37 L 30 51.5 L 29 51.5 L 29.5 37 Z " /><path fill="rgb(20,59,36)" stroke="rgb(20,59,36)" stroke-width="1" opacity="0.996078431372549" d="M 43.5 39 L 42.5 41 L 43.5 39 Z " /><path fill="rgb(20,59,36)" stroke="rgb(20,59,36)" stroke-width="1" opacity="0.996078431372549" d="M 83.5 41 L 84.5 43 L 83.5 41 Z " /><path fill="rgb(20,59,36)" stroke="rgb(20,59,36)" stroke-width="1" opacity="0.996078431372549" d="M 37.5 43 L 31.5 50 L 37.5 43 Z " /><path fill="rgb(20,59,36)" stroke="rgb(20,59,36)" stroke-width="1" opacity="0.996078431372549" d="M 1.5 58 L 26 58.5 L 1.5 59 L 1.5 58 Z " /><path fill="rgb(20,59,36)" stroke="rgb(20,59,36)" stroke-width="1" opacity="0.996078431372549" d="M 186.5 58 Q 190.3 57 189 60 L 185 59.5 L 186.5 58 Z " /><path fill="rgb(20,59,36)" stroke="rgb(20,59,36)" stroke-width="1" opacity="0.996078431372549" d="M 23.5 67 L 24 70.5 L 23 70.5 L 23.5 67 Z " /><path fill="rgb(20,59,36)" stroke="rgb(20,59,36)" stroke-width="1" opacity="0.996078431372549" d="M 23.5 77 L 24 79.5 L 23 79.5 L 23.5 77 Z " /><path fill="rgb(20,59,36)" stroke="rgb(20,59,36)" stroke-width="1" opacity="0.996078431372549" d="M 21.5 83 L 25 83.5 L 21.5 84 L 21.5 83 Z " /><path fill="rgb(20,59,36)" stroke="rgb(20,59,36)" stroke-width="1" opacity="0.996078431372549" d="M 21.5 85 Q 25.3 84.3 26 86.5 L 29 96 L 32 97.5 L 37.5 104 Q 45.3 110.9 58 112 L 57.5 117 L 30 117 L 29.5 101 L 29 117 L 0.5 117 L 0 116.5 L 0 109.5 L 1 102.5 Q 0.3 100.3 2.5 101 L 2.5 100 L 1 99.5 L 3 98.5 L 1 97.5 L 9 96.5 L 1 95.5 L 11 94.5 L 9 93.5 L 15 92.5 L 9 91.5 L 15 91 L 14.5 89 L 10.5 89 L 0.5 89 L 0 87 L 23 86.5 L 21.5 85 Z " /><path fill="rgb(20,59,36)" stroke="rgb(20,59,36)" stroke-width="1" opacity="0.996078431372549" d="M 86.5 103 L 87 107 L 83 107.5 L 87 108.5 L 81 109.5 L 85 110.5 L 77 111.5 L 83 112.5 L 77 113.5 L 79 114.5 L 69 115.5 L 77 116.5 L 60 117 L 59 112.5 Q 72.9 112.9 80.5 107 L 82 107.5 L 83.5 105 L 86.5 103 Z " /><path fill="rgb(20,59,36)" stroke="rgb(20,59,36)" stroke-width="1" opacity="0.996078431372549" d="M 89.5 104 L 97 104.5 L 89.5 105 L 89.5 104 Z " /><path fill="rgb(20,59,36)" stroke="rgb(20,59,36)" stroke-width="1" opacity="0.996078431372549" d="M 0 118 L 29 118 L 29 143 L 25 143.5 L 29 144.5 L 25 145.5 L 29 146.5 L 4.5 147 L 1 145 L 0 142.5 L 0 118 Z M 21 125 Q 20 128 23 127 Q 24 124 21 125 Z M 17 131 L 15 133 L 17 133 L 17 131 Z " /><path fill="rgb(20,59,36)" stroke="rgb(20,59,36)" stroke-width="1" opacity="0.996078431372549" d="M 30 118 L 57.5 118 Q 58.5 118 58 122.5 L 57.5 127 L 49 127.5 L 58 128.5 L 51 129.5 L 53 130.5 L 45 131.5 L 51 132.5 L 45 133.5 L 47 134.5 L 37 135.5 L 47 136.5 L 37 137.5 L 39 138.5 L 33 139.5 L 39 140.5 L 33 141.5 L 35 142.5 L 30 143 L 30 118 Z " /><path fill="rgb(20,59,36)" stroke="rgb(20,59,36)" stroke-width="1" opacity="0.996078431372549" d="M 60 118 L 71 118.5 L 65 119.5 L 71 120.5 L 65 121.5 L 67 122.5 L 60 123 L 60 118 Z " /><path fill="rgb(20,59,36)" stroke="rgb(20,59,36)" stroke-width="1" opacity="0.996078431372549" d="M 60.5 124 L 63 124.5 L 60.5 125 L 60.5 124 Z " /><path fill="rgb(20,59,36)" stroke="rgb(20,59,36)" stroke-width="1" opacity="0.996078431372549" d="M 30.5 144 L 33 144.5 L 30.5 145 L 30.5 144 Z " /><path fill="rgb(20,59,36)" stroke="rgb(20,59,36)" stroke-width="1" opacity="0.996078431372549" d="M 30.5 146 L 33 146.5 L 30.5 147 L 30.5 146 Z " /><path fill="rgb(2,8,4)" stroke="rgb(2,8,4)" stroke-width="1" opacity="0.011764705882352941" d="M 0 0 L 4 0.5 L 0 3.5 L 0 0 Z " /><path fill="rgb(2,8,4)" stroke="rgb(2,8,4)" stroke-width="1" opacity="0.011764705882352941" d="M 231.5 0 Q 237.8 -0.8 238 0.5 L 238 150 L 0.5 150 Q -0.8 149.8 0 143.5 L 1 143.5 Q 0.3 145.8 2.5 145 L 4.5 147 L 230.5 147 L 234 144.5 L 235 142.5 L 235 4.5 L 232.5 1 L 231.5 0 Z " /><path fill="rgb(36,73,50)" stroke="rgb(36,73,50)" stroke-width="1" opacity="0.996078431372549" d="M 58 36 Q 61.3 34.9 60 39 L 65.5 39 L 72 39.5 L 71.5 41 L 74.5 42 L 76 41.5 L 76.5 43 L 84.5 43 L 84.5 44 L 80 44.5 L 86.5 45 L 92 50.5 Q 99.8 59.2 100 75.5 L 97 88.5 L 89 101 L 73.5 110 L 59.5 111 L 58.5 112 L 41.5 106 L 33 98.5 Q 27.8 93.7 26 85.5 L 26.5 84 Q 23.5 84.7 25 81 L 28 80.5 L 24 79.5 L 27 78.5 L 24 77.5 L 28 76.5 L 24 75.5 L 27 75 Q 28.5 71.2 25.5 72 L 25.5 71 L 28 70.5 L 28 66.5 L 29 60 Q 26 61 27 58 Q 30.7 59.4 29 53.5 L 30 53.5 L 30.5 58 L 39.5 47 L 49.5 41 L 56.5 40 L 58 38.5 L 58 36 Z M 57 41 L 43 47 Q 32 54 29 70 L 30 83 L 35 93 Q 42 103 57 106 L 68 106 L 83 99 Q 91 92 94 80 Q 96 61 87 53 Q 81 45 72 42 L 57 41 Z " /><path fill="rgb(36,73,50)" stroke="rgb(36,73,50)" stroke-width="1" opacity="0.996078431372549" d="M 60.5 42 L 65 43 L 61 51.5 Q 62.5 57.5 59.5 59 L 48.5 52 L 47 55.5 L 61 71.5 L 61 88 L 34.5 88 L 34 86.5 Q 29.2 80.3 31 67.5 Q 34 54.5 43.5 48 L 48.5 45 L 60.5 42 Z M 36 64 L 36 69 Q 39 70 38 66 L 42 66 L 42 64 L 36 64 Z M 35 73 L 33 75 L 35 77 L 37 76 Q 38 72 35 73 Z M 36 81 L 36 86 L 42 86 L 42 84 L 38 84 Q 39 80 36 81 Z " /><path fill="rgb(36,73,50)" stroke="rgb(36,73,50)" stroke-width="1" opacity="0.996078431372549" d="M 68 43 L 78.5 47 L 84 51 L 91 62.5 L 93 75.5 L 91 84.5 L 88.5 88 L 63 88 L 63 65.5 L 75 52.5 L 77 47 Q 70.8 47.4 67.5 52 L 67 48.5 L 68 43 Z M 82 64 Q 81 67 85 66 L 85 69 L 87 69 Q 90 62 82 64 Z M 88 73 L 86 76 L 90 77 Q 92 72 88 73 Z M 85 81 Q 87 86 82 84 L 82 86 L 87 86 L 87 81 L 85 81 Z " /><path fill="rgb(36,73,50)" stroke="rgb(36,73,50)" stroke-width="1" opacity="0.996078431372549" d="M 161.5 56 L 162.5 58 L 161.5 56 Z " /><path fill="rgb(36,73,50)" stroke="rgb(36,73,50)" stroke-width="1" opacity="0.996078431372549" d="M 172.5 56 Q 175.5 56.5 175 60.5 L 174 60.5 L 172.5 56 Z " /><path fill="rgb(36,73,50)" stroke="rgb(36,73,50)" stroke-width="1" opacity="0.996078431372549" d="M 207.5 58 L 208 64.5 L 207 64.5 L 207.5 58 Z " /><path fill="rgb(36,73,50)" stroke="rgb(36,73,50)" stroke-width="1" opacity="0.996078431372549" d="M 188.5 61 L 189 63 L 187 62.5 L 188.5 61 Z " /><path fill="rgb(36,73,50)" stroke="rgb(36,73,50)" stroke-width="1" opacity="0.996078431372549" d="M 116.5 85 L 118 85.5 L 115.5 87 L 116.5 85 Z " /><path fill="rgb(36,73,50)" stroke="rgb(36,73,50)" stroke-width="1" opacity="0.996078431372549" d="M 123.5 85 L 125.5 85 L 127 85.5 L 125 86 L 124.5 88 L 123.5 85 Z " /><path fill="rgb(36,73,50)" stroke="rgb(36,73,50)" stroke-width="1" opacity="0.996078431372549" d="M 128.5 85 L 131 89.5 L 129 90 L 128.5 85 Z " /><path fill="rgb(36,73,50)" stroke="rgb(36,73,50)" stroke-width="1" opacity="0.996078431372549" d="M 145.5 85 L 147.5 86 L 149 85.5 Q 147.8 88.3 146.5 86 L 145.5 85 Z " /><path fill="rgb(36,73,50)" stroke="rgb(36,73,50)" stroke-width="1" opacity="0.996078431372549" d="M 166 85 L 168 85.5 L 166 86.5 L 166 85 Z " /><path fill="rgb(36,73,50)" stroke="rgb(36,73,50)" stroke-width="1" opacity="0.996078431372549" d="M 196.5 85 L 199 85.5 L 197.5 90 L 196.5 85 Z " /><path fill="rgb(36,73,50)" stroke="rgb(36,73,50)" stroke-width="1" opacity="0.996078431372549" d="M 208.5 85 L 210.5 85 L 212 85.5 L 209.5 87 L 208.5 85 Z " /><path fill="rgb(36,73,50)" stroke="rgb(36,73,50)" stroke-width="1" opacity="0.996078431372549" d="M 223.5 85 L 221.5 88 L 223.5 85 Z " /><path fill="rgb(36,73,50)" stroke="rgb(36,73,50)" stroke-width="1" opacity="0.996078431372549" d="M 118.5 87 Q 120.8 86.3 120 88.5 L 118.5 87 Z " /><path fill="rgb(36,73,50)" stroke="rgb(36,73,50)" stroke-width="1" opacity="0.996078431372549" d="M 121 87 L 123 87.5 L 121 88.5 L 121 87 Z " /><path fill="rgb(36,73,50)" stroke="rgb(36,73,50)" stroke-width="1" opacity="0.996078431372549" d="M 107.5 95 L 219 95.5 L 206.5 96 L 205.5 97 L 204.5 96 L 177.5 96 L 175.5 96 L 107.5 96 L 107.5 95 Z " /><path fill="rgb(36,73,50)" stroke="rgb(36,73,50)" stroke-width="1" opacity="0.996078431372549" d="M 120.5 103 L 124 103.5 L 120.5 104 L 120.5 103 Z " /><path fill="rgb(36,73,50)" stroke="rgb(36,73,50)" stroke-width="1" opacity="0.996078431372549" d="M 166.5 103 L 167 105.5 L 166 105.5 L 166.5 103 Z " /><path fill="rgb(36,73,50)" stroke="rgb(36,73,50)" stroke-width="1" opacity="0.996078431372549" d="M 168.5 117 L 169 119.5 L 168 119.5 L 168.5 117 Z " /><path fill="rgb(36,73,50)" stroke="rgb(36,73,50)" stroke-width="1" opacity="0.996078431372549" d="M 193.5 117 L 235 117.5 L 193.5 118 L 193.5 117 Z " /><path fill="rgb(36,73,50)" stroke="rgb(36,73,50)" stroke-width="1" opacity="0.996078431372549" d="M 129.5 119 L 130 121.5 L 129 121.5 L 129.5 119 Z " /><path fill="rgb(36,73,50)" stroke="rgb(36,73,50)" stroke-width="1" opacity="0.996078431372549" d="M 168.5 122 L 169 123.5 L 167.5 125 L 149.5 125 L 148.5 123 L 149.5 124 L 168 124 L 168.5 122 Z " /><path fill="rgb(36,73,50)" stroke="rgb(36,73,50)" stroke-width="1" opacity="0.996078431372549" d="M 205.5 129 L 206 146.5 L 205 146.5 L 205.5 129 Z " /><path fill="rgb(69,95,62)" stroke="rgb(69,95,62)" stroke-width="1" opacity="1" d="M 56.5 41 L 71.5 42 Q 81.2 45.3 87 52.5 Q 95.5 61 94 79.5 Q 91.3 92.3 82.5 99 L 67.5 106 L 56.5 106 Q 42.1 102.9 35 92.5 L 30 82.5 L 29 69.5 Q 31.7 54.2 42.5 47 L 56.5 41 Z M 61 42 L 49 45 L 44 48 Q 34 54 31 68 Q 29 80 34 87 L 35 88 L 61 88 L 61 72 L 47 56 L 49 52 L 59 58 L 61 59 L 61 62 L 50 54 L 48 55 L 49 57 L 52 58 L 51 60 L 54 61 L 60 67 L 61 66 L 62 68 L 62 64 L 74 51 L 74 49 L 68 53 L 63 57 L 66 50 L 66 46 L 62 55 L 61 55 L 61 52 L 65 43 L 61 42 Z M 68 43 L 67 49 L 68 52 L 77 47 L 68 43 Z M 77 47 L 75 53 L 63 66 L 63 88 L 89 88 L 91 85 L 93 76 L 91 63 L 84 51 L 77 47 Z M 36 89 L 36 90 L 89 90 L 36 89 Z " /><path fill="rgb(69,95,62)" stroke="rgb(69,95,62)" stroke-width="1" opacity="1" d="M 164.5 50 Q 170.6 49.3 173 51 L 174 53.5 L 169.5 54 L 166 53 Q 164.7 56.3 169.5 55 L 174 58.5 Q 175 63 172.5 64 L 163.5 65 Q 160.3 63.8 161 60 L 169 62 L 167.5 59 Q 162.8 58.8 161 55.5 Q 160.3 51.8 162.5 51 L 164.5 50 Z " /><path fill="rgb(69,95,62)" stroke="rgb(69,95,62)" stroke-width="1" opacity="1" d="M 136.5 54 L 137 64.5 L 136 64.5 L 136.5 54 Z " /><path fill="rgb(69,95,62)" stroke="rgb(69,95,62)" stroke-width="1" opacity="1" d="M 178.5 54 Q 186.5 52.5 188 57.5 L 183.5 58 L 180 57 L 179 59.5 L 180 62 L 183 62 Q 181.8 59 185.5 60 L 188 61.5 L 187 64 Q 184.6 65.8 178.5 65 L 176 64 L 175 57.5 L 176 55 L 178.5 54 Z " /><path fill="rgb(69,95,62)" stroke="rgb(69,95,62)" stroke-width="1" opacity="1" d="M 191.5 54 Q 199.3 52.2 201 56.5 L 201 65 L 197.5 65 L 195.5 64 L 190.5 65 Q 188.3 64.3 189 60.5 L 194 58.5 L 189 58 L 191.5 54 Z M 196 60 L 193 62 L 196 62 L 196 60 Z " /><path fill="rgb(69,95,62)" stroke="rgb(69,95,62)" stroke-width="1" opacity="1" d="M 202 54 L 207.5 55 L 212.5 54 Q 216.7 57 215 65 L 210 65 L 210 57.5 L 208.5 57 Q 205.3 58.9 207 65 L 202 65 L 202 54 Z " /><path fill="rgb(69,95,62)" stroke="rgb(69,95,62)" stroke-width="1" opacity="1" d="M 144.5 57 L 143.5 59 L 144.5 57 Z " /><path fill="rgb(69,95,62)" stroke="rgb(69,95,62)" stroke-width="1" opacity="1" d="M 153.5 57 L 154.5 59 L 153.5 57 Z " /><path fill="rgb(69,95,62)" stroke="rgb(69,95,62)" stroke-width="1" opacity="1" d="M 146.5 58 L 147 60.5 L 146 60.5 L 146.5 58 Z " /><path fill="rgb(69,95,62)" stroke="rgb(69,95,62)" stroke-width="1" opacity="1" d="M 154.5 60 L 153.5 62 L 154.5 60 Z " /><path fill="rgb(69,95,62)" stroke="rgb(69,95,62)" stroke-width="1" opacity="1" d="M 36.5 64 L 38 68.5 L 36 69 L 36.5 64 Z " /><path fill="rgb(69,95,62)" stroke="rgb(69,95,62)" stroke-width="1" opacity="1" d="M 41.5 64 L 42 66 L 38 65.5 L 41.5 64 Z " /><path fill="rgb(69,95,62)" stroke="rgb(69,95,62)" stroke-width="1" opacity="1" d="M 86.5 64 L 87 69 Q 83.7 70.1 85 66 L 82.5 66 L 82.5 65 L 86.5 64 Z " /><path fill="rgb(69,95,62)" stroke="rgb(69,95,62)" stroke-width="1" opacity="1" d="M 135.5 67 L 134.5 69 L 135.5 67 Z " /><path fill="rgb(69,95,62)" stroke="rgb(69,95,62)" stroke-width="1" opacity="1" d="M 108.5 70 L 122.5 70 L 124 71.5 Q 125.3 76.8 122.5 78 L 108.5 78 L 107 76.5 Q 105.8 71.3 108.5 70 Z M 112 72 L 112 76 L 119 76 L 118 74 Q 117 71 112 72 Z " /><path fill="rgb(69,95,62)" stroke="rgb(69,95,62)" stroke-width="1" opacity="1" d="M 34.5 73 Q 38.3 71.8 37 75.5 L 34.5 77 L 33 74.5 L 34.5 73 Z " /><path fill="rgb(69,95,62)" stroke="rgb(69,95,62)" stroke-width="1" opacity="1" d="M 87.5 73 Q 92.1 71.8 90 77 L 86 75.5 L 87.5 73 Z " /><path fill="rgb(69,95,62)" stroke="rgb(69,95,62)" stroke-width="1" opacity="1" d="M 36 81 L 38 81.5 L 36.5 86 L 36 81 Z " /><path fill="rgb(69,95,62)" stroke="rgb(69,95,62)" stroke-width="1" opacity="1" d="M 85 81 Q 88 79.8 87 83.5 L 86.5 86 L 82 84.5 L 85 84 L 85 81 Z " /><path fill="rgb(69,95,62)" stroke="rgb(69,95,62)" stroke-width="1" opacity="1" d="M 38.5 84 Q 42.9 82.5 42 85.5 L 40.5 85 Q 37.5 85.5 38.5 84 Z " /><path fill="rgb(69,95,62)" stroke="rgb(69,95,62)" stroke-width="1" opacity="1" d="M 108.5 85 Q 110.8 84.3 110 86.5 L 111.5 86 Q 114.5 85.1 113 89.5 L 111.5 89 Q 109.3 89.8 110 87.5 L 109 87.5 L 107.5 90 L 107 86.5 L 108.5 85 Z " /><path fill="rgb(69,95,62)" stroke="rgb(69,95,62)" stroke-width="1" opacity="1" d="M 121 85 Q 123.7 83.9 123 86.5 L 124.5 88 L 128 87.5 L 127.5 90 Q 123.1 91.5 124 88.5 L 122 88.5 L 122.5 87 Q 119.9 87.7 121 85 Z " /><path fill="rgb(69,95,62)" stroke="rgb(69,95,62)" stroke-width="1" opacity="1" d="M 132 85 L 135 86.5 L 132 87 Q 133 90 130 89 L 130.5 86 L 132 86.5 L 132 85 Z " /><path fill="rgb(69,95,62)" stroke="rgb(69,95,62)" stroke-width="1" opacity="1" d="M 137 85 L 140 86.5 L 140 88.5 L 139.5 90 L 137.5 87 L 136.5 89 L 136 87.5 L 137 85 Z " /><path fill="rgb(69,95,62)" stroke="rgb(69,95,62)" stroke-width="1" opacity="1" d="M 141 85 Q 144.7 83.5 144 86.5 L 142 86.5 L 141.5 90 L 141 85 Z " /><path fill="rgb(69,95,62)" stroke="rgb(69,95,62)" stroke-width="1" opacity="1" d="M 149 85 L 152 86.5 L 146.5 90 L 146 86.5 L 147.5 87 Q 150.1 87.7 149 85 Z " /><path fill="rgb(69,95,62)" stroke="rgb(69,95,62)" stroke-width="1" opacity="1" d="M 163 85 Q 167.9 83.2 166 89.5 L 165 89.5 L 164.5 86 L 163 86.5 L 163 85 Z " /><path fill="rgb(69,95,62)" stroke="rgb(69,95,62)" stroke-width="1" opacity="1" d="M 168.5 85 Q 172.7 83.9 171 88 L 167.5 90 L 167 86.5 L 168.5 85 Z " /><path fill="rgb(69,95,62)" stroke="rgb(69,95,62)" stroke-width="1" opacity="1" d="M 184 85 Q 186.7 83.9 186 86.5 L 187.5 86 L 192 85 Q 193.5 88.7 190.5 88 L 187 90 L 186.5 88 L 185 88.5 L 184 85 Z " /><path fill="rgb(69,95,62)" stroke="rgb(69,95,62)" stroke-width="1" opacity="1" d="M 199 85 Q 202.8 83.5 202 86.5 L 200 86.5 L 199.5 90 L 199 85 Z " /><path fill="rgb(69,95,62)" stroke="rgb(69,95,62)" stroke-width="1" opacity="1" d="M 206.5 85 Q 208.8 84.3 208 86.5 L 207 89 Q 204 90.3 205 86.5 L 206.5 85 Z " /><path fill="rgb(69,95,62)" stroke="rgb(69,95,62)" stroke-width="1" opacity="1" d="M 219 85 L 224 87 Q 223 84 226 85 L 226 87 L 224 87 Q 225.1 89.7 222.5 89 Q 221.2 91.3 220 88.5 L 219 85 Z " /><path fill="rgb(69,95,62)" stroke="rgb(69,95,62)" stroke-width="1" opacity="1" d="M 117.5 86 L 116.5 88 L 115 87.5 L 117.5 86 Z " /><path fill="rgb(69,95,62)" stroke="rgb(69,95,62)" stroke-width="1" opacity="1" d="M 156 86 L 158 86 Q 156.9 88.7 159.5 88 L 159.5 86 Q 163.7 84.7 162 89.5 L 161 89.5 L 160.5 88 Q 159.4 90.8 156 90 L 156 86 Z " /><path fill="rgb(69,95,62)" stroke="rgb(69,95,62)" stroke-width="1" opacity="1" d="M 172 86 Q 175.3 84.9 174 89 L 171.5 90 L 172 88.5 L 172 86 Z " /><path fill="rgb(69,95,62)" stroke="rgb(69,95,62)" stroke-width="1" opacity="1" d="M 176 86 Q 179 84.8 178 88.5 L 175.5 90 L 176 88.5 L 176 86 Z " /><path fill="rgb(69,95,62)" stroke="rgb(69,95,62)" stroke-width="1" opacity="1" d="M 180.5 86 L 181 90 L 179 89.5 L 180.5 86 Z " /><path fill="rgb(69,95,62)" stroke="rgb(69,95,62)" stroke-width="1" opacity="1" d="M 210.5 86 Q 213.1 85.2 212 88.5 Q 210.5 91.5 209 88.5 L 210.5 86 Z " /><path fill="rgb(69,95,62)" stroke="rgb(69,95,62)" stroke-width="1" opacity="1" d="M 213 86 Q 216.3 84.9 215 89 Q 211.7 90.1 213 86 Z " /><path fill="rgb(69,95,62)" stroke="rgb(69,95,62)" stroke-width="1" opacity="1" d="M 228 86 Q 231.3 84.9 230 89 Q 226.7 90.1 228 86 Z " /><path fill="rgb(69,95,62)" stroke="rgb(69,95,62)" stroke-width="1" opacity="1" d="M 193.5 87 L 196 87.5 L 195.5 90 L 192 89.5 L 193.5 87 Z " /><path fill="rgb(69,95,62)" stroke="rgb(69,95,62)" stroke-width="1" opacity="1" d="M 118.5 88 L 117.5 90 L 118.5 88 Z " /><path fill="rgb(69,95,62)" stroke="rgb(69,95,62)" stroke-width="1" opacity="1" d="M 133.5 88 L 134.5 90 L 133.5 88 Z " /><path fill="rgb(69,95,62)" stroke="rgb(69,95,62)" stroke-width="1" opacity="1" d="M 107 103 L 110.5 104 L 112.5 104 Q 115.1 103.3 114 106 L 110 106 Q 111.1 103.3 108.5 104 L 108.5 106 Q 105.5 106.7 107 103 Z " /><path fill="rgb(69,95,62)" stroke="rgb(69,95,62)" stroke-width="1" opacity="1" d="M 126.5 103 Q 129.1 102.2 128 105.5 L 127 105.5 L 126.5 104 L 122.5 106 L 120.5 106 Q 115.1 107.9 116 104.5 L 118.5 104 L 122.5 105 L 126.5 103 Z " /><path fill="rgb(69,95,62)" stroke="rgb(69,95,62)" stroke-width="1" opacity="1" d="M 129 103 L 135 104.5 L 133 105.5 L 133.5 107 L 130.5 105 L 129 105.5 L 129 103 Z " /><path fill="rgb(69,95,62)" stroke="rgb(69,95,62)" stroke-width="1" opacity="1" d="M 136.5 103 L 137 105.5 L 136 105.5 L 136.5 103 Z " /><path fill="rgb(69,95,62)" stroke="rgb(69,95,62)" stroke-width="1" opacity="1" d="M 138 103 L 142.5 104 L 144.5 103 L 146.5 103 L 149.5 104 L 152.5 103 Q 157.3 101.3 156 105.5 L 153.5 106 Q 148.1 107.9 149 104.5 L 148 104.5 Q 148.8 107.1 145.5 106 L 143.5 106 L 141.5 105 L 139.5 106 L 138 103 Z " /><path fill="rgb(69,95,62)" stroke="rgb(69,95,62)" stroke-width="1" opacity="1" d="M 158.5 103 Q 163.3 101.8 164.5 104 L 166 103.5 L 165.5 106 L 163.5 106 L 160.5 105 L 157 106 L 158.5 103 Z " /><path fill="rgb(69,95,62)" stroke="rgb(69,95,62)" stroke-width="1" opacity="1" d="M 171.5 103 Q 174.5 104.5 171.5 106 L 171.5 103 Z " /><path fill="rgb(69,95,62)" stroke="rgb(69,95,62)" stroke-width="1" opacity="1" d="M 174.5 103 L 178.5 103 L 185.5 104 L 187.5 103 L 189.5 103 Q 191.8 102.3 191 104.5 L 194 105.5 L 191.5 106 Q 189.3 106.8 190 104.5 L 187 104.5 Q 187.8 107.1 184.5 106 L 182.5 106 L 174 106 L 174.5 103 Z " /><path fill="rgb(69,95,62)" stroke="rgb(69,95,62)" stroke-width="1" opacity="1" d="M 201.5 103 L 205.5 104 L 207.5 104 L 209.5 103 L 212 103.5 L 212 106 L 205.5 106 L 203.5 105 L 203.5 107 L 198 104.5 L 199.5 104 L 201.5 105 L 201.5 103 Z " /><path fill="rgb(69,95,62)" stroke="rgb(69,95,62)" stroke-width="1" opacity="1" d="M 213.5 103 L 215.5 104 L 218.5 103 Q 221.5 102.2 220 106 L 214.5 106 L 214 104.5 L 213.5 103 Z " /><path fill="rgb(69,95,62)" stroke="rgb(69,95,62)" stroke-width="1" opacity="1" d="M 221.5 103 L 223 106 Q 219.5 107.1 221.5 103 Z " /><path fill="rgb(69,95,62)" stroke="rgb(69,95,62)" stroke-width="1" opacity="1" d="M 224.5 103 L 226 106 Q 222.5 107.1 224.5 103 Z " /><path fill="rgb(69,95,62)" stroke="rgb(69,95,62)" stroke-width="1" opacity="1" d="M 149.5 116 L 167.5 116 L 168 119.5 L 166 119.5 Q 166.8 121.8 164.5 121 L 161.5 120 L 158.5 119 L 156.5 120 L 153 119 L 153.5 122 L 155.5 121 L 156.5 122 L 168 122 L 167.5 124 L 149.5 124 Q 146.8 122.8 149 121.5 Q 149.8 119.3 147.5 120 L 148 118.5 L 149.5 116 Z " /><path fill="rgb(69,95,62)" stroke="rgb(69,95,62)" stroke-width="1" opacity="1" d="M 105.5 119 L 106 121.5 L 105 121.5 L 105.5 119 Z " /><path fill="rgb(69,95,62)" stroke="rgb(69,95,62)" stroke-width="1" opacity="1" d="M 108.5 119 L 109 121.5 L 108 121.5 L 108.5 119 Z " /><path fill="rgb(69,95,62)" stroke="rgb(69,95,62)" stroke-width="1" opacity="1" d="M 116.5 119 L 118.5 122 L 116.5 119 Z " /><path fill="rgb(136,177,131)" stroke="rgb(136,177,131)" stroke-width="1" opacity="1" d="M 65.5 46 L 66 49.5 L 63 56.5 L 67.5 53 L 73.5 49 L 74 50.5 L 62 63.5 L 61.5 68 L 60.5 66 L 59.5 67 L 53.5 61 L 51 59.5 L 51.5 58 L 49 56.5 L 47 53.5 L 48.5 54 Q 56.3 56.2 60.5 62 L 61 55.5 L 65.5 46 Z " /><path fill="rgb(136,177,131)" stroke="rgb(136,177,131)" stroke-width="1" opacity="1" d="M 112 50 L 118.5 50 L 119 51.5 L 122.5 60 L 125.5 54 L 136 54 L 136 66.5 Q 134 71 125.5 69 L 123.5 66 L 130 65.5 L 124.5 64 L 118 65 L 118 63 L 113 63 L 113 65 L 107 65 L 112 50 Z M 116 56 L 115 59 L 116 59 L 116 56 Z M 130 57 L 129 62 L 131 61 L 130 57 Z " /><path fill="rgb(136,177,131)" stroke="rgb(136,177,131)" stroke-width="1" opacity="1" d="M 138 54 L 146.5 54 L 147 55.5 L 148.5 55 L 156.5 54 L 159 55 L 160 61.5 L 159 64 Q 156.6 65.8 150.5 65 L 147 62.5 L 146.5 57 L 143 58.5 L 143 65 L 138 65 L 138 54 Z M 154 57 L 152 61 Q 154 64 155 61 L 154 57 Z " /><path fill="rgb(136,177,131)" stroke="rgb(136,177,131)" stroke-width="1" opacity="1" d="M 37 64 L 41 64.5 L 38 65 L 37.5 68 L 37 64 Z " /><path fill="rgb(136,177,131)" stroke="rgb(136,177,131)" stroke-width="1" opacity="1" d="M 82.5 64 L 86 64.5 L 82.5 65 L 82.5 64 Z " /><path fill="rgb(136,177,131)" stroke="rgb(136,177,131)" stroke-width="1" opacity="1" d="M 112 72 Q 116.6 70.8 118 73.5 L 119 75.5 L 112 76 L 112 72 Z " /><path fill="rgb(136,177,131)" stroke="rgb(136,177,131)" stroke-width="1" opacity="1" d="M 37.5 82 L 38 85 L 41 85.5 L 37 86 L 37.5 82 Z " /><path fill="rgb(136,177,131)" stroke="rgb(136,177,131)" stroke-width="1" opacity="1" d="M 86.5 84 L 85.5 86 L 82 85.5 L 86.5 84 Z " /><path fill="rgb(136,177,131)" stroke="rgb(136,177,131)" stroke-width="1" opacity="1" d="M 113.5 86 L 114 89.5 L 113 89.5 L 113.5 86 Z " /><path fill="rgb(136,177,131)" stroke="rgb(136,177,131)" stroke-width="1" opacity="1" d="M 116.5 86 L 119 89.5 L 117.5 89 L 115.5 90 L 115 88 L 117 87.5 L 116.5 86 Z " /><path fill="rgb(136,177,131)" stroke="rgb(136,177,131)" stroke-width="1" opacity="1" d="M 120.5 86 L 121 89 L 123.5 88 L 124 90 L 120 88.5 L 120.5 86 Z " /><path fill="rgb(136,177,131)" stroke="rgb(136,177,131)" stroke-width="1" opacity="1" d="M 125.5 86 Q 127.8 85.3 127 87.5 L 128 87.5 L 128.5 86 L 129 89.5 L 125.5 86 Z " /><path fill="rgb(136,177,131)" stroke="rgb(136,177,131)" stroke-width="1" opacity="1" d="M 136.5 86 L 137.5 88 L 136.5 86 Z " /><path fill="rgb(136,177,131)" stroke="rgb(136,177,131)" stroke-width="1" opacity="1" d="M 142.5 86 L 143 89.5 L 142 89.5 L 142.5 86 Z " /><path fill="rgb(136,177,131)" stroke="rgb(136,177,131)" stroke-width="1" opacity="1" d="M 145.5 86 L 146 89.5 L 145 89.5 L 145.5 86 Z " /><path fill="rgb(136,177,131)" stroke="rgb(136,177,131)" stroke-width="1" opacity="1" d="M 155.5 86 L 156 89.5 L 155 89.5 L 155.5 86 Z " /><path fill="rgb(136,177,131)" stroke="rgb(136,177,131)" stroke-width="1" opacity="1" d="M 158.5 86 L 161 89.5 L 160 89.5 Q 160.7 86.9 158 88 L 158.5 86 Z " /><path fill="rgb(136,177,131)" stroke="rgb(136,177,131)" stroke-width="1" opacity="1" d="M 164.5 86 L 165 89.5 L 164 89.5 L 164.5 86 Z " /><path fill="rgb(136,177,131)" stroke="rgb(136,177,131)" stroke-width="1" opacity="1" d="M 181.5 86 L 182 89.5 L 181 89.5 L 181.5 86 Z " /><path fill="rgb(136,177,131)" stroke="rgb(136,177,131)" stroke-width="1" opacity="1" d="M 183.5 86 L 184 89 L 186.5 88 L 187 90 L 183 88.5 L 183.5 86 Z " /><path fill="rgb(136,177,131)" stroke="rgb(136,177,131)" stroke-width="1" opacity="1" d="M 193.5 86 Q 195.8 85.3 195 87.5 L 196 87.5 L 196.5 86 L 197 89.5 L 193.5 86 Z " /><path fill="rgb(136,177,131)" stroke="rgb(136,177,131)" stroke-width="1" opacity="1" d="M 200.5 86 L 201 89.5 L 200 89.5 L 200.5 86 Z " /><path fill="rgb(136,177,131)" stroke="rgb(136,177,131)" stroke-width="1" opacity="1" d="M 208.5 86 L 209 90 L 205 89.5 L 208 89 L 208.5 86 Z " /><path fill="rgb(136,177,131)" stroke="rgb(136,177,131)" stroke-width="1" opacity="1" d="M 218.5 86 L 219.5 88 Q 216.7 88.7 218.5 86 Z " /><path fill="rgb(136,177,131)" stroke="rgb(136,177,131)" stroke-width="1" opacity="1" d="M 226.5 86 L 227 88.5 L 223.5 90 L 223.5 89 Q 227.5 90.1 226.5 86 Z " /><path fill="rgb(136,177,131)" stroke="rgb(136,177,131)" stroke-width="1" opacity="1" d="M 134.5 87 L 135 88.5 L 131.5 90 L 131.5 89 Q 135 90 134.5 87 Z " /><path fill="rgb(136,177,131)" stroke="rgb(136,177,131)" stroke-width="1" opacity="1" d="M 148.5 88 L 151 89.5 L 148 90 L 148.5 88 Z " /><path fill="rgb(136,177,131)" stroke="rgb(136,177,131)" stroke-width="1" opacity="1" d="M 35.5 89 L 89 89.5 L 35.5 90 L 35.5 89 Z " /><path fill="rgb(136,177,131)" stroke="rgb(136,177,131)" stroke-width="1" opacity="1" d="M 108.5 89 L 111 89.5 L 108.5 90 L 108.5 89 Z " /><path fill="rgb(136,177,131)" stroke="rgb(136,177,131)" stroke-width="1" opacity="1" d="M 136.5 89 L 139 89.5 L 136.5 90 L 136.5 89 Z " /><path fill="rgb(136,177,131)" stroke="rgb(136,177,131)" stroke-width="1" opacity="1" d="M 168.5 89 L 171 89.5 L 168.5 90 L 168.5 89 Z " /><path fill="rgb(136,177,131)" stroke="rgb(136,177,131)" stroke-width="1" opacity="1" d="M 172.5 89 L 175 89.5 L 172.5 90 L 172.5 89 Z " /><path fill="rgb(136,177,131)" stroke="rgb(136,177,131)" stroke-width="1" opacity="1" d="M 189.5 89 L 192 89.5 L 189.5 90 L 189.5 89 Z " /><path fill="rgb(136,177,131)" stroke="rgb(136,177,131)" stroke-width="1" opacity="1" d="M 211.5 89 L 214 89.5 L 211.5 90 L 211.5 89 Z " /><path fill="rgb(136,177,131)" stroke="rgb(136,177,131)" stroke-width="1" opacity="1" d="M 218.5 89 L 221 89.5 L 218.5 90 L 218.5 89 Z " /><path fill="rgb(136,177,131)" stroke="rgb(136,177,131)" stroke-width="1" opacity="1" d="M 228.5 89 L 231 89.5 L 228.5 90 L 228.5 89 Z " /><path fill="rgb(136,177,131)" stroke="rgb(136,177,131)" stroke-width="1" opacity="1" d="M 137.5 103 L 139 105.5 L 137 106 L 137.5 103 Z " /><path fill="rgb(136,177,131)" stroke="rgb(136,177,131)" stroke-width="1" opacity="1" d="M 164.5 103 Q 167.5 104.5 164.5 106 L 164.5 103 Z " /><path fill="rgb(136,177,131)" stroke="rgb(136,177,131)" stroke-width="1" opacity="1" d="M 172.5 103 Q 175.5 102.2 174 106 L 172 105.5 L 172.5 103 Z " /><path fill="rgb(136,177,131)" stroke="rgb(136,177,131)" stroke-width="1" opacity="1" d="M 182.5 103 L 184 103.5 L 181.5 105 L 182.5 103 Z " /><path fill="rgb(136,177,131)" stroke="rgb(136,177,131)" stroke-width="1" opacity="1" d="M 199.5 103 L 202 104.5 L 200.5 104 L 199.5 103 Z " /><path fill="rgb(136,177,131)" stroke="rgb(136,177,131)" stroke-width="1" opacity="1" d="M 212.5 103 L 215 103.5 L 214 106 Q 210.5 107.1 212.5 103 Z " /><path fill="rgb(136,177,131)" stroke="rgb(136,177,131)" stroke-width="1" opacity="1" d="M 114 104 Q 117 103 116 106 Q 113 107 114 104 Z " /><path fill="rgb(136,177,131)" stroke="rgb(136,177,131)" stroke-width="1" opacity="1" d="M 126.5 104 L 127 106 L 125 105.5 L 126.5 104 Z " /><path fill="rgb(136,177,131)" stroke="rgb(136,177,131)" stroke-width="1" opacity="1" d="M 153.5 104 L 154.5 106 L 153.5 104 Z " /><path fill="rgb(136,177,131)" stroke="rgb(136,177,131)" stroke-width="1" opacity="1" d="M 187.5 104 L 190 104.5 Q 190.7 107.5 187 106 L 187.5 104 Z " /><path fill="rgb(136,177,131)" stroke="rgb(136,177,131)" stroke-width="1" opacity="1" d="M 191.5 104 L 192.5 106 L 191.5 104 Z " /><path fill="rgb(136,177,131)" stroke="rgb(136,177,131)" stroke-width="1" opacity="1" d="M 106 119 Q 109.3 117.9 108 122 Q 104.7 123.1 106 119 Z " /><path fill="rgb(136,177,131)" stroke="rgb(136,177,131)" stroke-width="1" opacity="1" d="M 115.5 119 Q 117 122.5 118.5 120 L 124 119 L 125 121.5 L 119.5 122 L 117.5 122 L 115.5 121 L 114 121.5 L 115.5 119 Z " /><path fill="rgb(136,177,131)" stroke="rgb(136,177,131)" stroke-width="1" opacity="1" d="M 130 119 L 138.5 121 L 141.5 119 L 143.5 120 L 146.5 119 L 149 120 L 148.5 122 L 140.5 122 L 138.5 122 Q 133 123.5 131.5 121 L 130 121.5 L 130 119 Z " /><path fill="rgb(136,177,131)" stroke="rgb(136,177,131)" stroke-width="1" opacity="1" d="M 153 119 L 157.5 120 L 159.5 120 L 162.5 121 L 164.5 121 Q 166.8 121.8 166 119.5 L 167.5 120 Q 174.4 118 173 122 L 156.5 122 L 154.5 121 L 153 121.5 L 153 119 Z " /><path fill="rgb(22,63,39)" stroke="rgb(22,63,39)" stroke-width="1" opacity="0.996078431372549" d="M 205.5 0 L 206 14.5 L 207 15.5 L 207 21.5 Q 205.8 26.2 208 27.5 L 207.5 29 L 219 28.5 L 211 27.5 L 219 26.5 L 217 25.5 L 225 24.5 L 220 23.5 L 227 22.5 L 225 21.5 L 231 20.5 L 225 19.5 L 231 18.5 L 229 17.5 L 234.5 17 L 235 19.5 L 235 29 L 229.5 29 L 229.5 30 Q 234.9 29.4 235 30.5 L 235 58 L 219.5 58 L 219 60 L 235 60.5 L 233 61.5 L 235 62.5 L 227 63.5 L 235 64.5 L 229 65.5 L 231 66.5 L 221 67.5 L 229 68.5 L 221 69.5 L 223 70.5 L 213 71.5 L 223 72.5 L 213 73.5 L 219 74.5 L 209 75.5 L 215 76.5 L 209 77.5 L 211 78.5 L 207.5 79 L 207 74.5 L 205.5 72 L 205 79 L 201 79.5 L 205 80.5 L 201 81.5 L 203 82.5 L 197 83.5 L 203 84.5 L 188.5 85 L 187.5 86 L 183 85 L 182.5 87 L 182 85 L 180 85 Q 181.7 90.2 178 89 Q 179.7 83.8 176 85 Q 177.7 90.2 174 89 L 173.5 85 L 160.5 85 L 158.5 85 L 155 85 L 155 90 L 162 90 Q 160.7 85.9 164 87 Q 162.7 91.1 166 90 L 166.5 87 L 167 90 L 181.5 90 L 182.5 89 L 191 90.5 L 181 91.5 L 191 92.5 L 181 93.5 L 183 94.5 L 177.5 95 L 177 92.5 L 176.5 91 L 175 95 L 118.5 95 L 118 93.5 L 118.5 92 L 116 92.5 L 117 95 L 112.5 94 L 110.5 94 L 109 93.5 L 115 92.5 L 109 91.5 L 117 90.5 L 116.5 89 L 119 90.5 L 119.5 89 L 120.5 91 L 121.5 90 L 134.5 90 L 135.5 89 L 140 90 L 140.5 87 L 141 90 L 143 90 Q 141.7 85.9 145 87 L 145 90 L 152 90 Q 153.1 87.3 150.5 88 L 149 88.5 Q 148.2 85.9 151.5 87 L 150.5 85 L 147.5 86 Q 146 83.5 140.5 85 L 138.5 85 Q 134.8 83.8 136 87.5 L 135 87.5 L 132.5 84 L 129 86 L 128.5 84 L 127.5 87 L 127 84 L 121 83.5 L 131 82.5 L 129 81.5 L 135 80.5 L 129 79.5 L 135 78.5 L 133 77.5 L 141 76.5 L 133 75.5 L 143 74.5 L 141 73.5 L 146 72.5 L 141 71.5 L 149 70.5 L 145 69.5 L 150 69 L 150.5 71 L 151.5 69 L 152.5 71 L 155.5 69 L 157.5 69 L 172.5 69 L 173 67 L 175.5 67 Q 177.3 70.8 184.5 69 Q 186 66.5 191.5 68 Q 193 70.5 198.5 69 L 201.5 67 L 205.5 67 L 214.5 67 L 215 65.5 L 217 60.5 L 216 58.5 Q 218.5 57 215 55.5 Q 215.8 53.3 213.5 54 L 210.5 52 L 204.5 52 L 201.5 53 L 198.5 52 L 189.5 52 L 187.5 54 L 187 52 L 183 52 L 183 50.5 L 182 50.5 L 181.5 52 L 181 50 L 179 49.5 L 187 48.5 L 177 47.5 L 187 46.5 L 185 45.5 L 191 44.5 L 185 43.5 L 195 42.5 L 193 41.5 L 199 40.5 L 193 39.5 L 199 38.5 L 197 37.5 L 205 36.5 L 197 35.5 L 205 35 L 204.5 30 L 177 30 L 176.5 42 Q 174.3 41.3 175 37.5 L 175.5 30 L 137 29.5 L 176 28.5 L 176 26.5 L 176.5 13 L 177 29 L 205 29 L 205.5 0 Z M 208 30 L 208 31 L 213 31 L 208 30 Z M 208 32 L 208 33 L 211 33 L 208 32 Z M 177 73 L 176 79 L 175 82 L 176 84 L 177 84 L 177 73 Z " /><path fill="rgb(22,63,39)" stroke="rgb(22,63,39)" stroke-width="1" opacity="0.996078431372549" d="M 229.5 15 L 235 15.5 L 229.5 16 L 229.5 15 Z " /><path fill="rgb(22,63,39)" stroke="rgb(22,63,39)" stroke-width="1" opacity="0.996078431372549" d="M 57.5 35 L 66 35.5 L 57.5 36 L 57.5 35 Z " /><path fill="rgb(22,63,39)" stroke="rgb(22,63,39)" stroke-width="1" opacity="0.996078431372549" d="M 117.5 37 L 118 40.5 L 117 40.5 L 117.5 37 Z " /><path fill="rgb(22,63,39)" stroke="rgb(22,63,39)" stroke-width="1" opacity="0.996078431372549" d="M 39.5 42 L 37.5 45 L 39.5 42 Z " /><path fill="rgb(22,63,39)" stroke="rgb(22,63,39)" stroke-width="1" opacity="0.996078431372549" d="M 85.5 43 L 86.5 45 L 85.5 43 Z " /><path fill="rgb(22,63,39)" stroke="rgb(22,63,39)" stroke-width="1" opacity="0.996078431372549" d="M 90.5 48 L 92.5 51 L 90.5 48 Z " /><path fill="rgb(22,63,39)" stroke="rgb(22,63,39)" stroke-width="1" opacity="0.996078431372549" d="M 31.5 50 L 29.5 53 L 31.5 50 Z " /><path fill="rgb(22,63,39)" stroke="rgb(22,63,39)" stroke-width="1" opacity="0.996078431372549" d="M 177.5 51 L 180 51.5 L 177.5 52 L 177.5 51 Z " /><path fill="rgb(22,63,39)" stroke="rgb(22,63,39)" stroke-width="1" opacity="0.996078431372549" d="M 93.5 52 L 94.5 54 L 93.5 52 Z " /><path fill="rgb(22,63,39)" stroke="rgb(22,63,39)" stroke-width="1" opacity="0.996078431372549" d="M 96.5 57 L 98 59.5 L 97 59.5 L 96.5 57 Z " /><path fill="rgb(22,63,39)" stroke="rgb(22,63,39)" stroke-width="1" opacity="0.996078431372549" d="M 101.5 58 L 105 58.5 L 101.5 59 L 101.5 58 Z " /><path fill="rgb(22,63,39)" stroke="rgb(22,63,39)" stroke-width="1" opacity="0.996078431372549" d="M 109.5 69 L 114 69.5 L 109.5 70 L 109.5 69 Z " /><path fill="rgb(22,63,39)" stroke="rgb(22,63,39)" stroke-width="1" opacity="0.996078431372549" d="M 118.5 69 L 122 69.5 L 118.5 70 L 118.5 69 Z " /><path fill="rgb(22,63,39)" stroke="rgb(22,63,39)" stroke-width="1" opacity="0.996078431372549" d="M 23.5 71 L 24 76.5 L 23 76.5 L 23.5 71 Z " /><path fill="rgb(22,63,39)" stroke="rgb(22,63,39)" stroke-width="1" opacity="0.996078431372549" d="M 117.5 79 L 118 83.5 L 117 83.5 L 117.5 79 Z " /><path fill="rgb(22,63,39)" stroke="rgb(22,63,39)" stroke-width="1" opacity="0.996078431372549" d="M 207.5 80 L 211 80.5 L 207.5 81 L 207.5 80 Z " /><path fill="rgb(22,63,39)" stroke="rgb(22,63,39)" stroke-width="1" opacity="0.996078431372549" d="M 98.5 87 L 105.5 87 L 106 89 L 97 88.5 L 98.5 87 Z " /><path fill="rgb(22,63,39)" stroke="rgb(22,63,39)" stroke-width="1" opacity="0.996078431372549" d="M 169.5 88 L 172 88.5 L 169.5 89 L 169.5 88 Z " /><path fill="rgb(22,63,39)" stroke="rgb(22,63,39)" stroke-width="1" opacity="0.996078431372549" d="M 190.5 88 L 193 88.5 L 190.5 89 L 190.5 88 Z " /><path fill="rgb(22,63,39)" stroke="rgb(22,63,39)" stroke-width="1" opacity="0.996078431372549" d="M 29.5 94 L 30.5 96 Q 27.7 96.7 29.5 94 Z " /><path fill="rgb(22,63,39)" stroke="rgb(22,63,39)" stroke-width="1" opacity="0.996078431372549" d="M 101.5 95 L 107 95.5 L 101.5 96 L 101.5 95 Z " /><path fill="rgb(22,63,39)" stroke="rgb(22,63,39)" stroke-width="1" opacity="0.996078431372549" d="M 101.5 97 L 116.5 97 L 117 100.5 L 118 100.5 L 118.5 97 L 146 97 L 146.5 101 L 148.5 97 L 170.5 97 L 171.5 98 L 175 97.5 Q 175.6 100.3 169.5 99 L 169.5 100 L 175 100.5 L 169 101.5 L 171 102.5 L 152.5 103 L 151.5 104 L 150.5 103 L 141.5 103 L 139.5 103 Q 134.3 101.5 136 106 L 167 106.5 L 157 107.5 L 165 108.5 L 157 109.5 L 159 110.5 L 149 111.5 L 159 112.5 L 149 113.5 L 155 114.5 L 148 115 L 148 107.5 L 146 107 L 145 111.5 L 146 114.5 L 144.5 116 L 138.5 116 Q 128.4 114.4 122.5 117 L 118 116 L 117.5 107 L 117 116 L 107.5 116 L 106.5 117 L 81.5 117 L 76.5 116 L 69 115.5 L 79 114.5 L 77 113.5 L 83 112.5 L 77 111.5 L 85 110.5 L 81 109.5 L 87 108.5 L 83 107.5 L 87 107 Q 85.8 102.4 88.5 101 L 89 103 L 99 102.5 L 97 101.5 L 103 100.5 L 97 99.5 L 103 98.5 L 101.5 97 Z M 107 103 Q 105 107 109 106 L 111 106 L 128 106 L 128 103 L 125 104 L 121 103 L 119 103 L 117 104 L 107 103 Z M 129 103 L 129 106 L 134 107 L 135 104 L 129 103 Z M 90 104 L 90 105 L 97 105 L 90 104 Z " /><path fill="rgb(22,63,39)" stroke="rgb(22,63,39)" stroke-width="1" opacity="0.996078431372549" d="M 32.5 98 L 37.5 104 L 32.5 98 Z " /><path fill="rgb(22,63,39)" stroke="rgb(22,63,39)" stroke-width="1" opacity="0.996078431372549" d="M 29.5 101 L 30 117 L 57.5 117 Q 58.5 117 58 112.5 L 60 113.5 L 60 117 L 66.5 117 L 66.5 118 L 60 118 L 60 123 L 67 122.5 L 65 121.5 L 71 120.5 L 65 119.5 L 71.5 118 L 75.5 118 L 107 118.5 L 105 119 L 105 122 Q 107.7 120.9 107 123.5 L 108.5 125 L 117 125 L 117 135 L 113.5 135 L 113.5 136 L 117 136.5 L 113 137.5 L 115 138.5 L 105 139.5 L 115 140.5 L 105 141.5 L 107 142.5 L 99 143.5 L 107 144.5 L 101 145.5 L 107 146.5 L 89 147 L 88.5 133 L 87 135.5 L 87 141.5 Q 87.6 146.9 86.5 147 L 59 147 L 58.5 145 L 58 147 L 37.5 147 L 36.5 146 L 32.5 146 L 29.5 147 L 25 145.5 L 29 144.5 L 25 143.5 L 29 143 L 29 118 L 0.5 118 L 0.5 117 L 29 117 L 29.5 101 Z M 30 118 L 30 143 L 35 143 L 33 142 L 39 141 L 33 140 L 39 139 L 37 138 L 47 137 L 37 136 L 47 135 L 45 134 L 51 133 L 45 132 L 53 131 L 51 130 L 58 129 L 49 128 L 58 127 L 58 123 Q 58 118 58 118 L 30 118 Z M 61 124 L 61 125 L 63 125 L 61 124 Z M 31 144 L 31 145 L 33 145 L 31 144 Z " /><path fill="rgb(22,63,39)" stroke="rgb(22,63,39)" stroke-width="1" opacity="0.996078431372549" d="M 84.5 104 L 85.5 106 L 84.5 104 Z " /><path fill="rgb(22,63,39)" stroke="rgb(22,63,39)" stroke-width="1" opacity="0.996078431372549" d="M 42.5 106 L 43.5 108 L 42.5 106 Z " /><path fill="rgb(22,63,39)" stroke="rgb(22,63,39)" stroke-width="1" opacity="0.996078431372549" d="M 72.5 110 L 73.5 112 L 72.5 110 Z " /><path fill="rgb(22,63,39)" stroke="rgb(22,63,39)" stroke-width="1" opacity="0.996078431372549" d="M 123.5 118 Q 125.8 117.3 125 119.5 L 123.5 118 Z " /><path fill="rgb(22,63,39)" stroke="rgb(22,63,39)" stroke-width="1" opacity="0.996078431372549" d="M 123 122 Q 125.7 120.9 125 123.5 L 127.5 126 L 131.5 126 L 133 126.5 L 125 127.5 L 135 128.5 L 125 129.5 L 127 130.5 L 118 131 L 118 125 L 121.5 125 L 123 122 Z " /><path fill="rgb(22,63,39)" stroke="rgb(22,63,39)" stroke-width="1" opacity="0.996078431372549" d="M 118.5 132 L 127 132.5 L 118.5 133 L 118.5 132 Z " /><path fill="rgb(22,63,39)" stroke="rgb(22,63,39)" stroke-width="1" opacity="0.996078431372549" d="M 118.5 136 L 123 136.5 L 118.5 137 L 118.5 136 Z " /><path fill="rgb(23,68,43)" stroke="rgb(23,68,43)" stroke-width="1" opacity="0.996078431372549" d="M 229.5 29 L 235 29.5 L 229.5 30 L 229.5 29 Z " /><path fill="rgb(23,68,43)" stroke="rgb(23,68,43)" stroke-width="1" opacity="0.996078431372549" d="M 54.5 36 Q 59.3 34.3 58 38.5 L 45.5 43 L 35 51.5 L 30.5 58 L 30 52.5 L 36.5 45 Q 43.2 38.2 54.5 36 Z " /><path fill="rgb(23,68,43)" stroke="rgb(23,68,43)" stroke-width="1" opacity="0.996078431372549" d="M 60 36 Q 71.9 34.3 77.5 40 L 78.5 39 L 81.5 42 L 84 42.5 L 76 43 L 75.5 41 L 73.5 41 L 69.5 39 L 65.5 39 Q 58.2 41.3 60 36 Z " /><path fill="rgb(23,68,43)" stroke="rgb(23,68,43)" stroke-width="1" opacity="0.996078431372549" d="M 80.5 44 L 86 44.5 L 80.5 45 L 80.5 44 Z " /><path fill="rgb(23,68,43)" stroke="rgb(23,68,43)" stroke-width="1" opacity="0.996078431372549" d="M 87.5 45 L 89.5 48 L 87.5 45 Z " /><path fill="rgb(23,68,43)" stroke="rgb(23,68,43)" stroke-width="1" opacity="0.996078431372549" d="M 190.5 54 L 189.5 56 L 190.5 54 Z " /><path fill="rgb(23,68,43)" stroke="rgb(23,68,43)" stroke-width="1" opacity="0.996078431372549" d="M 28.5 55 L 29 58 L 27 57.5 L 28.5 55 Z " /><path fill="rgb(23,68,43)" stroke="rgb(23,68,43)" stroke-width="1" opacity="0.996078431372549" d="M 187.5 56 L 188.5 58 L 187.5 56 Z " /><path fill="rgb(23,68,43)" stroke="rgb(23,68,43)" stroke-width="1" opacity="0.996078431372549" d="M 201.5 58 L 202 63.5 L 201 63.5 L 201.5 58 Z " /><path fill="rgb(23,68,43)" stroke="rgb(23,68,43)" stroke-width="1" opacity="0.996078431372549" d="M 209.5 58 L 210 64.5 L 209 64.5 L 209.5 58 Z " /><path fill="rgb(23,68,43)" stroke="rgb(23,68,43)" stroke-width="1" opacity="0.996078431372549" d="M 219 58 L 234.5 58 L 235 60 L 219.5 60 L 219 58 Z " /><path fill="rgb(23,68,43)" stroke="rgb(23,68,43)" stroke-width="1" opacity="0.996078431372549" d="M 26.5 59 L 29 60 Q 30 65.3 27 67.5 L 27.5 71 L 25 71.5 L 27 72 Q 28.5 76.5 24 75 L 24 67.5 L 26.5 59 Z " /><path fill="rgb(23,68,43)" stroke="rgb(23,68,43)" stroke-width="1" opacity="0.996078431372549" d="M 189.5 59 L 188.5 61 L 187 60.5 L 189.5 59 Z " /><path fill="rgb(23,68,43)" stroke="rgb(23,68,43)" stroke-width="1" opacity="0.996078431372549" d="M 188.5 63 L 189.5 65 L 188.5 63 Z " /><path fill="rgb(23,68,43)" stroke="rgb(23,68,43)" stroke-width="1" opacity="0.996078431372549" d="M 227.5 63 L 235 63.5 L 227.5 64 L 227.5 63 Z " /><path fill="rgb(23,68,43)" stroke="rgb(23,68,43)" stroke-width="1" opacity="0.996078431372549" d="M 229.5 65 L 235 65.5 L 235 67.5 L 235 117 L 193.5 117 L 193.5 118 L 235 118 L 235 142.5 L 232.5 146 L 230.5 147 L 206 147 L 205.5 129 L 205 147 L 177.5 147 L 177 145.5 L 176 145.5 L 175.5 147 L 109.5 147 L 106.5 146 L 101 145.5 L 107 144.5 L 99 143.5 L 107 142.5 L 105 141.5 L 115 140.5 L 105 139.5 L 115 138.5 L 113 137.5 L 117 136.5 L 113 135.5 L 117 135 L 117 125 L 108.5 125 L 107 122 Q 110.3 123.1 109 119 L 106.5 118 L 69 117.5 L 106.5 117 L 107.5 116 L 117 116 L 117.5 107 L 118 116 L 124.5 117 L 125.5 116 L 138.5 116 L 139.5 115 L 144.5 116 L 146 114.5 L 145 111.5 L 146 107 L 148 107.5 L 148 115 L 154.5 115 L 154.5 114 L 149 113.5 L 159 112.5 L 149 111.5 L 159 110.5 L 157 109.5 L 165 108.5 L 157 107.5 L 167 107 Q 165.7 103.7 170.5 105 L 170.5 104 L 167 103.5 L 171 102.5 L 169 101.5 L 175 100.5 L 169 99.5 L 175 99 L 174.5 97 L 170.5 97 L 148.5 97 L 147 98.5 Q 149.3 99.8 146.5 101 L 146 97 L 118.5 97 L 118 100.5 L 117 100.5 L 117 97 L 107.5 97 L 107.5 96 L 175.5 96 L 176.5 97 L 177.5 96 L 204.5 96 L 206.5 96 L 219 95.5 L 189.5 95 L 188.5 94 L 182.5 94 L 181 93.5 L 191 92.5 L 181 91.5 L 190.5 91 L 191.5 90 L 199.5 90 Q 202.1 90.8 201 87.5 L 203 84.5 L 197 83.5 L 203 82.5 L 201 81.5 L 205 80.5 L 201 79.5 L 205 79 L 205.5 72 L 208 75.5 L 207.5 79 L 211 78.5 L 209 77.5 L 215 76.5 L 209 75.5 L 219 74.5 L 213 73.5 L 223 72.5 L 213 71.5 L 223 70.5 L 221 69.5 L 229 68.5 L 221 67.5 L 231 66.5 L 229.5 65 Z M 208 80 L 208 81 L 211 81 L 208 80 Z M 207 84 Q 204 85 205 90 L 210 89 L 215 90 L 215 85 L 213 85 L 213 89 L 212 85 L 210 86 L 209 85 L 207 84 Z M 218 85 L 218 88 Q 216 89 219 90 L 227 90 L 228 89 L 232 90 L 232 89 L 230 89 L 230 85 Q 227 84 228 87 L 226 85 L 223 86 L 218 85 Z M 173 102 L 171 104 L 172 106 L 194 106 L 193 103 L 179 103 L 178 104 L 177 103 L 173 102 Z M 198 103 L 198 106 L 203 107 L 205 106 L 226 106 L 225 103 L 223 104 Q 221 102 217 103 L 215 103 Q 210 102 209 104 L 207 103 L 205 103 L 203 104 L 198 103 Z M 148 116 Q 150 121 145 119 L 143 119 L 139 121 L 134 119 Q 127 117 129 122 L 132 121 L 140 123 L 148 122 L 150 125 L 168 125 L 169 124 L 169 122 L 173 122 Q 174 118 169 120 L 169 118 L 168 116 L 148 116 Z M 124 118 L 121 120 L 114 119 L 113 122 L 123 122 L 122 125 L 118 125 L 118 131 L 127 131 L 125 130 L 135 129 L 125 128 L 133 127 L 132 126 L 128 126 L 125 124 Q 126 117 124 118 Z M 119 132 L 119 133 L 127 133 L 119 132 Z M 119 136 L 119 137 L 123 137 L 119 136 Z " /><path fill="rgb(23,68,43)" stroke="rgb(23,68,43)" stroke-width="1" opacity="0.996078431372549" d="M 99.5 68 L 100 70.5 L 99 70.5 L 99.5 68 Z " /><path fill="rgb(23,68,43)" stroke="rgb(23,68,43)" stroke-width="1" opacity="0.996078431372549" d="M 114.5 69 L 118 69.5 L 114.5 70 L 114.5 69 Z " /><path fill="rgb(23,68,43)" stroke="rgb(23,68,43)" stroke-width="1" opacity="0.996078431372549" d="M 176.5 73 L 177 83.5 L 176 83.5 L 175 81.5 L 176 78.5 L 176.5 73 Z " /><path fill="rgb(23,68,43)" stroke="rgb(23,68,43)" stroke-width="1" opacity="0.996078431372549" d="M 24.5 76 L 28 76.5 L 24.5 77 L 24.5 76 Z " /><path fill="rgb(23,68,43)" stroke="rgb(23,68,43)" stroke-width="1" opacity="0.996078431372549" d="M 99.5 76 L 100 79.5 L 99 79.5 L 99.5 76 Z " /><path fill="rgb(23,68,43)" stroke="rgb(23,68,43)" stroke-width="1" opacity="0.996078431372549" d="M 24.5 78 L 27 78.5 L 24.5 79 L 24.5 78 Z " /><path fill="rgb(23,68,43)" stroke="rgb(23,68,43)" stroke-width="1" opacity="0.996078431372549" d="M 108.5 78 L 111 78.5 L 108.5 79 L 108.5 78 Z " /><path fill="rgb(23,68,43)" stroke="rgb(23,68,43)" stroke-width="1" opacity="0.996078431372549" d="M 24.5 80 L 28 80.5 L 24.5 81 L 24.5 80 Z " /><path fill="rgb(23,68,43)" stroke="rgb(23,68,43)" stroke-width="1" opacity="0.996078431372549" d="M 224 87 L 226 87.5 L 224 88.5 L 224 87 Z " /><path fill="rgb(23,68,43)" stroke="rgb(23,68,43)" stroke-width="1" opacity="0.996078431372549" d="M 95.5 91 L 94.5 93 L 95.5 91 Z " /><path fill="rgb(23,68,43)" stroke="rgb(23,68,43)" stroke-width="1" opacity="0.996078431372549" d="M 176.5 91 L 178 93.5 L 175 95 L 176.5 91 Z " /><path fill="rgb(23,68,43)" stroke="rgb(23,68,43)" stroke-width="1" opacity="0.996078431372549" d="M 117.5 92 L 118 94.5 L 117 94.5 L 117.5 92 Z " /><path fill="rgb(23,68,43)" stroke="rgb(23,68,43)" stroke-width="1" opacity="0.996078431372549" d="M 31.5 96 L 32.5 98 L 31.5 96 Z " /><path fill="rgb(23,68,43)" stroke="rgb(23,68,43)" stroke-width="1" opacity="0.996078431372549" d="M 91.5 97 L 89.5 100 L 91.5 97 Z " /><path fill="rgb(23,68,43)" stroke="rgb(23,68,43)" stroke-width="1" opacity="0.996078431372549" d="M 87.5 101 L 85.5 104 L 87.5 101 Z " /><path fill="rgb(23,68,43)" stroke="rgb(23,68,43)" stroke-width="1" opacity="0.996078431372549" d="M 38.5 103 L 39.5 105 L 38.5 103 Z " /><path fill="rgb(23,68,43)" stroke="rgb(23,68,43)" stroke-width="1" opacity="0.996078431372549" d="M 80.5 106 L 79.5 108 L 80.5 106 Z " /><path fill="rgb(23,68,43)" stroke="rgb(23,68,43)" stroke-width="1" opacity="0.996078431372549" d="M 59.5 111 L 67 111.5 L 59.5 112 L 59.5 111 Z " /><path fill="rgb(23,68,43)" stroke="rgb(23,68,43)" stroke-width="1" opacity="0.996078431372549" d="M 16.5 131 L 15.5 133 L 16.5 131 Z " /><path fill="rgb(23,68,43)" stroke="rgb(23,68,43)" stroke-width="1" opacity="0.996078431372549" d="M 88.5 133 L 89 147 Q 85 148.4 87 141.5 L 88 134.5 L 88.5 133 Z " /><path fill="rgb(17,52,31)" stroke="rgb(17,52,31)" stroke-width="1" opacity="0.996078431372549" d="M 4.5 0 L 116.5 0 L 117 0.5 L 117 27 L 113 27.5 L 117 28.5 L 89 29 L 88.5 5 L 88 22.5 L 87 23.5 L 87 27.5 L 86.5 29 L 59 29 L 58.5 21 L 58 29 L 37 29.5 L 58 30 L 58 35 L 55.5 35 Q 39.2 38.2 31 49.5 L 30.5 51 L 29.5 37 L 29 53.5 L 27 58 L 1 58.5 L 26 59.5 Q 21.4 66.4 23 79.5 L 23.5 83 L 21 83.5 L 25 84.5 L 21 85.5 L 23 86.5 L 0 87 L 0 4.5 L 4.5 0 Z " /><path fill="rgb(17,52,31)" stroke="rgb(17,52,31)" stroke-width="1" opacity="0.996078431372549" d="M 118 0 L 145.5 0 Q 146.5 0 146 4.5 L 145.5 9 L 143 9 L 142.5 11 L 137.5 11 L 137.5 12 L 143 12.5 L 137 13.5 L 139 14.5 L 129 15.5 L 137 16.5 L 129 17.5 L 131 18.5 L 125 19.5 L 131 20.5 L 123 21.5 L 125 22.5 L 118 23 L 118 0 Z " /><path fill="rgb(17,52,31)" stroke="rgb(17,52,31)" stroke-width="1" opacity="0.996078431372549" d="M 148 0 L 163 0.5 L 157 1 L 156.5 3 L 149.5 3 L 149.5 4 L 155 4.5 L 149 5.5 L 151 6.5 L 148 7 L 148 0 Z " /><path fill="rgb(17,52,31)" stroke="rgb(17,52,31)" stroke-width="1" opacity="0.996078431372549" d="M 148.5 8 L 151 8.5 L 148.5 9 L 148.5 8 Z " /><path fill="rgb(17,52,31)" stroke="rgb(17,52,31)" stroke-width="1" opacity="0.996078431372549" d="M 118.5 24 L 123 24.5 L 118.5 25 L 118.5 24 Z " /><path fill="rgb(17,52,31)" stroke="rgb(17,52,31)" stroke-width="1" opacity="0.996078431372549" d="M 59 30 L 86.5 30 L 87 31.5 L 87 33.5 L 87 42.5 L 85.5 43 Q 76.6 34 59 35 L 59 30 Z " /><path fill="rgb(17,52,31)" stroke="rgb(17,52,31)" stroke-width="1" opacity="0.996078431372549" d="M 89 30 L 111 30.5 L 105 31.5 L 111 32.5 L 105 33.5 L 107 34.5 L 99 35.5 L 103 36.5 L 97 37.5 L 99 38.5 L 93 39.5 L 99 40.5 L 93 41 Q 94.3 44.3 89.5 43 L 89 38.5 L 89 30 Z " /><path fill="rgb(17,52,31)" stroke="rgb(17,52,31)" stroke-width="1" opacity="0.996078431372549" d="M 113.5 48 L 117.5 48 L 122 52.5 L 121.5 54 L 123.5 55 L 125 54.5 L 122.5 59 L 118.5 50 Q 112.5 48.5 111 51.5 L 109 59 Q 106.3 60.1 107 57.5 L 110 50 L 113.5 48 Z " /><path fill="rgb(17,52,31)" stroke="rgb(17,52,31)" stroke-width="1" opacity="0.996078431372549" d="M 166.5 53 L 173 54 L 173 56 Q 175.7 54.9 175 57.5 L 172.5 56 L 167.5 55 L 166.5 53 Z " /><path fill="rgb(17,52,31)" stroke="rgb(17,52,31)" stroke-width="1" opacity="0.996078431372549" d="M 137.5 54 L 138 65 L 143 65.5 L 137 67 Q 138.1 69.7 135.5 69 Q 133.2 72.2 126.5 71 L 125.5 69 L 134.5 69 L 136 67.5 L 137.5 54 Z " /><path fill="rgb(17,52,31)" stroke="rgb(17,52,31)" stroke-width="1" opacity="0.996078431372549" d="M 148.5 54 L 147.5 56 L 148.5 54 Z " /><path fill="rgb(17,52,31)" stroke="rgb(17,52,31)" stroke-width="1" opacity="0.996078431372549" d="M 160.5 56 L 169 60.5 Q 167.3 63.8 165.5 60 Q 157.4 62.4 160.5 56 Z " /><path fill="rgb(17,52,31)" stroke="rgb(17,52,31)" stroke-width="1" opacity="0.996078431372549" d="M 146.5 57 L 146 58.5 Q 146.3 63.3 149.5 65 L 157 65.5 Q 155.3 67.8 150.5 67 Q 149.4 64.3 146 65 Q 147.1 62.3 144.5 63 L 143 63.5 Q 142 59 144.5 58 L 146.5 57 Z " /><path fill="rgb(17,52,31)" stroke="rgb(17,52,31)" stroke-width="1" opacity="0.996078431372549" d="M 129 58 Q 132.3 56.9 131 61 Q 127.7 62.1 129 58 Z " /><path fill="rgb(17,52,31)" stroke="rgb(17,52,31)" stroke-width="1" opacity="0.996078431372549" d="M 152 58 L 155 59.5 L 152 61 L 152 58 Z " /><path fill="rgb(17,52,31)" stroke="rgb(17,52,31)" stroke-width="1" opacity="0.996078431372549" d="M 180 58 L 186 58.5 L 180 61 L 180 58 Z " /><path fill="rgb(17,52,31)" stroke="rgb(17,52,31)" stroke-width="1" opacity="0.996078431372549" d="M 189.5 58 L 193 58.5 L 189.5 59 L 189.5 58 Z " /><path fill="rgb(17,52,31)" stroke="rgb(17,52,31)" stroke-width="1" opacity="0.996078431372549" d="M 208.5 58 L 209 62.5 L 208 62.5 L 208.5 58 Z " /><path fill="rgb(17,52,31)" stroke="rgb(17,52,31)" stroke-width="1" opacity="0.996078431372549" d="M 106 60 Q 108.7 58.9 108 61.5 L 106 62.5 L 106 60 Z " /><path fill="rgb(17,52,31)" stroke="rgb(17,52,31)" stroke-width="1" opacity="0.996078431372549" d="M 160.5 62 L 162 64.5 L 158.5 65 L 160.5 62 Z " /><path fill="rgb(17,52,31)" stroke="rgb(17,52,31)" stroke-width="1" opacity="0.996078431372549" d="M 174.5 62 L 176.5 65 L 173 64.5 L 174.5 62 Z " /><path fill="rgb(17,52,31)" stroke="rgb(17,52,31)" stroke-width="1" opacity="0.996078431372549" d="M 114.5 63 L 118.5 65 L 123.5 65 L 125.5 65 L 130 65.5 L 123 66 L 124 68.5 L 122 69 L 121.5 67 L 119.5 67 L 108.5 67 L 107.5 66 L 106 66.5 L 106.5 64 Q 107.7 66.3 112.5 65 L 114.5 63 Z " /><path fill="rgb(17,52,31)" stroke="rgb(17,52,31)" stroke-width="1" opacity="0.996078431372549" d="M 163.5 65 L 172 65.5 L 163.5 66 L 163.5 65 Z " /><path fill="rgb(17,52,31)" stroke="rgb(17,52,31)" stroke-width="1" opacity="0.996078431372549" d="M 179.5 65 L 183 65.5 L 179.5 66 L 179.5 65 Z " /><path fill="rgb(17,52,31)" stroke="rgb(17,52,31)" stroke-width="1" opacity="0.996078431372549" d="M 191.5 65 L 199 65.5 L 191.5 66 L 191.5 65 Z " /><path fill="rgb(17,52,31)" stroke="rgb(17,52,31)" stroke-width="1" opacity="0.996078431372549" d="M 0 89 L 10.5 89 L 11.5 90 L 15 89.5 Q 15.6 92.3 9.5 91 L 9.5 92 L 15 92.5 L 9 93.5 L 11 94.5 L 1 95.5 L 9 96.5 L 1 97.5 L 3 98.5 L 1 99.5 L 3 100.5 L 1 101 L 0.5 103 L 0 89 Z " /></svg>